<svg width="77" height="94" viewBox="0 0 77 94" fill="none" xmlns="http://www.w3.org/2000/svg">
    <g clipPath="url(#clip0_196_697)">
    <path d="M42.9606 38.3463L43.1763 39.3227L43.1763 39.3227L42.9606 38.3463ZM39.1571 38.462C38.8599 38.9275 38.9964 39.5458 39.462 39.8429L47.0484 44.685C47.514 44.9822 48.1322 44.8457 48.4294 44.3801C48.7265 43.9146 48.59 43.2963 48.1244 42.9992L41.3809 38.6951L45.685 31.9516C45.9822 31.486 45.8457 30.8678 45.3801 30.5706C44.9146 30.2735 44.2963 30.41 43.9992 30.8756L39.1571 38.462ZM22.784 28.5292L23.6854 28.0962L23.6854 28.0962L22.784 28.5292ZM44.0129 3.33566L44.2868 2.3739L44.2868 2.3739L44.0129 3.33566ZM42.745 37.3698L39.7844 38.0235L40.2156 39.9765L43.1763 39.3227L42.745 37.3698ZM26.0175 32.9512L23.6854 28.0962L21.8826 28.9622L24.2147 33.8172L26.0175 32.9512ZM23.6854 28.0962C17.3155 14.8354 29.5901 0.268433 43.739 4.29743L44.2868 2.3739C28.4794 -2.12735 14.7661 14.1471 21.8826 28.9622L23.6854 28.0962ZM43.1763 39.3227C62.5071 35.0543 63.3263 7.79555 44.2868 2.3739L43.739 4.29743C60.7811 9.15027 60.0478 33.5492 42.745 37.3698L43.1763 39.3227Z" fill="#C1DEBA"/>
    <path d="M4 40L7.26665 41.9423C27.8555 54.1843 53.6639 53.4275 73.5 40V40" stroke="#C1DEBA"/>
    <circle cx="39.5" cy="51" r="6" fill="#C1DEBA"/>
    <path d="M41.0301 47.9091V49.3864H36.7599V47.9091H41.0301ZM37.7293 46.2102H39.6959V52.821C39.6959 53.0026 39.7236 53.1442 39.779 53.2457C39.8344 53.3442 39.9114 53.4135 40.0099 53.4535C40.1114 53.4935 40.2284 53.5135 40.3607 53.5135C40.453 53.5135 40.5454 53.5058 40.6377 53.4904C40.73 53.4719 40.8008 53.4581 40.8501 53.4489L41.1594 54.9123C41.0609 54.9431 40.9224 54.9785 40.7439 55.0185C40.5654 55.0616 40.3484 55.0877 40.093 55.0969C39.619 55.1154 39.2035 55.0523 38.8465 54.9077C38.4926 54.763 38.2171 54.5384 38.0202 54.2337C37.8232 53.929 37.7262 53.5443 37.7293 53.0795V46.2102Z" fill="#1E3419"/>
    <ellipse cx="40" cy="82.5" rx="10" ry="10.5" fill="#C1DEBA"/>
    <path d="M35.3079 79.9091V81.3864H31.0377V79.9091H35.3079ZM32.0071 78.2102H33.9738V84.821C33.9738 85.0026 34.0015 85.1442 34.0569 85.2457C34.1123 85.3442 34.1892 85.4135 34.2877 85.4535C34.3892 85.4935 34.5062 85.5135 34.6385 85.5135C34.7309 85.5135 34.8232 85.5058 34.9155 85.4904C35.0079 85.4719 35.0786 85.4581 35.1279 85.4489L35.4372 86.9123C35.3387 86.9431 35.2002 86.9785 35.0217 87.0185C34.8432 87.0616 34.6262 87.0877 34.3708 87.0969C33.8968 87.1154 33.4813 87.0523 33.1243 86.9077C32.7704 86.763 32.495 86.5384 32.298 86.2337C32.101 85.929 32.0041 85.5443 32.0071 85.0795V78.2102ZM40.7069 77.1023L37.66 88.4219H35.9658L39.0127 77.1023H40.7069ZM45.0891 87.1293C44.4366 87.1293 43.855 87.0092 43.3441 86.7692C42.8362 86.5291 42.4331 86.1983 42.1345 85.7766C41.836 85.355 41.6806 84.8718 41.6683 84.3271H43.6072C43.6287 84.6933 43.7826 84.9903 44.0688 85.218C44.3551 85.4458 44.6951 85.5597 45.0891 85.5597C45.403 85.5597 45.68 85.4904 45.9201 85.3519C46.1632 85.2103 46.3525 85.0149 46.4879 84.7656C46.6264 84.5133 46.6956 84.224 46.6956 83.8977C46.6956 83.5653 46.6248 83.273 46.4833 83.0206C46.3448 82.7682 46.1524 82.5713 45.9062 82.4297C45.66 82.2881 45.3784 82.2158 45.0614 82.2127C44.7844 82.2127 44.5151 82.2696 44.2535 82.3835C43.995 82.4974 43.7934 82.6528 43.6487 82.8498L41.8714 82.5312L42.3192 77.5455H48.099V79.1797H43.9673L43.7226 81.5479H43.778C43.9442 81.314 44.195 81.1201 44.5305 80.9663C44.866 80.8124 45.2414 80.7354 45.6569 80.7354C46.2263 80.7354 46.7341 80.8693 47.1804 81.1371C47.6266 81.4048 47.979 81.7726 48.2375 82.2404C48.496 82.7051 48.6238 83.2406 48.6207 83.8469C48.6238 84.484 48.476 85.0503 48.1775 85.5458C47.8821 86.0382 47.4681 86.426 46.9357 86.7092C46.4063 86.9892 45.7908 87.1293 45.0891 87.1293Z" fill="#1E3419"/>
    <path d="M38.2929 70.7071C38.6834 71.0976 39.3166 71.0976 39.7071 70.7071L46.0711 64.3431C46.4616 63.9526 46.4616 63.3195 46.0711 62.9289C45.6805 62.5384 45.0474 62.5384 44.6569 62.9289L39 68.5858L33.3431 62.9289C32.9526 62.5384 32.3195 62.5384 31.9289 62.9289C31.5384 63.3195 31.5384 63.9526 31.9289 64.3431L38.2929 70.7071ZM38 59V70H40V59H38Z" fill="#C1DEBA"/>
    <g clipPath="url(#clip1_196_697)">
    <path d="M39 22.9995C40.6569 22.9995 42 21.6564 42 19.9995C42 18.3427 40.6569 16.9995 39 16.9995C37.3432 16.9995 36 18.3427 36 19.9995C36 21.6564 37.3432 22.9995 39 22.9995Z" stroke="#1E3419" strokeWidth="1.5" strokeMiterlimit="1.5" strokeLinecap="round" strokeLinejoin="round"/>
    <path d="M40 17C40 17 41 15 41 13C41 11 39 9 39 9C39 9 37 11 37 13C37 15 38 17 38 17" stroke="#1E3419" strokeWidth="1.5" strokeMiterlimit="1.5" strokeLinecap="round" strokeLinejoin="round"/>
    <path d="M36 19C36 19 34 18 32 18C30 18 28 20 28 20C28 20 30 22 32 22C34 22 36 21 36 21" stroke="#1E3419" strokeWidth="1.5" strokeMiterlimit="1.5" strokeLinecap="round" strokeLinejoin="round"/>
    <path d="M40 23C40 23 41 25 41 27C41 29 39 31 39 31C39 31 37 29 37 27C37 25 38 23 38 23" stroke="#1E3419" strokeWidth="1.5" strokeMiterlimit="1.5" strokeLinecap="round" strokeLinejoin="round"/>
    <path d="M42 19C42 19 44 18 46 18C48 18 50 20 50 20C50 20 48 22 46 22C44 22 42 21 42 21" stroke="#1E3419" strokeWidth="1.5" strokeMiterlimit="1.5" strokeLinecap="round" strokeLinejoin="round"/>
    <path d="M37.5856 17.1718C37.5856 17.1718 36.8785 15.0504 35.4643 13.6362C34.0501 12.222 31.2217 12.222 31.2217 12.222C31.2217 12.222 31.2217 15.0504 32.6359 16.4647C34.0501 17.8789 36.1714 18.586 36.1714 18.586" stroke="#1E3419" strokeWidth="1.5" strokeMiterlimit="1.5" strokeLinecap="round" strokeLinejoin="round"/>
    <path d="M36.1714 21.4142C36.1714 21.4142 34.0501 22.1213 32.6359 23.5355C31.2217 24.9497 31.2217 27.7782 31.2217 27.7782C31.2217 27.7782 34.0501 27.7782 35.4643 26.364C36.8785 24.9497 37.5856 22.8284 37.5856 22.8284" stroke="#1E3419" strokeWidth="1.5" strokeMiterlimit="1.5" strokeLinecap="round" strokeLinejoin="round"/>
    <path d="M41.8283 21.4142C41.8283 21.4142 43.9496 22.1213 45.3638 23.5355C46.778 24.9497 46.778 27.7782 46.778 27.7782C46.778 27.7782 43.9496 27.7782 42.5354 26.364C41.1212 24.9497 40.4141 22.8284 40.4141 22.8284" stroke="#1E3419" strokeWidth="1.5" strokeMiterlimit="1.5" strokeLinecap="round" strokeLinejoin="round"/>
    <path d="M40.4141 17.1718C40.4141 17.1718 41.1212 15.0504 42.5354 13.6362C43.9496 12.222 46.7781 12.222 46.7781 12.222C46.7781 12.222 46.7781 15.0504 45.3639 16.4647C43.9496 17.8789 41.8283 18.586 41.8283 18.586" stroke="#1E3419" strokeWidth="1.5" strokeMiterlimit="1.5" strokeLinecap="round" strokeLinejoin="round"/>
    </g>
    </g>
    <defs>
    <clipPath id="clip0_196_697">
    <rect width="77" height="94" fill="white"/>
    </clipPath>
    <clipPath id="clip1_196_697">
    <rect width="24" height="24" fill="white" transform="translate(27 8)"/>
    </clipPath>
    </defs>
</svg>
