<svg width="72" height="76" viewBox="0 0 72 76" fill="none" xmlns="http://www.w3.org/2000/svg">
    <path d="M22.4783 8.44386L22.064 8.62107C21.4286 8.8921 21.0528 9.24521 20.7293 9.60224C21.0259 9.74296 21.311 9.92278 21.5821 10.1378C22.1868 10.6394 22.5946 11.1815 22.9142 11.9007L23.3949 12.9757L22.2443 12.8311C21.4197 12.7295 20.8674 12.9171 20.3317 13.0982C20.1131 13.1738 19.8894 13.2494 19.6554 13.3015C19.6707 13.4005 19.6822 13.5008 19.6899 13.5999C19.7411 14.194 19.6631 14.7973 19.4611 15.3928C19.1913 16.1394 18.8231 16.7075 18.2593 17.2496L17.8796 17.6131L17.4487 17.3161C16.8082 16.8717 16.3544 16.3701 15.9772 15.6886C15.7254 15.2091 15.563 14.7192 15.494 14.2162C15.2306 14.2631 14.9698 14.2722 14.7141 14.2826C14.1516 14.3048 13.5686 14.3269 12.8334 14.7205L11.8068 15.2716L11.8823 14.0924C11.9321 13.3054 12.1252 12.6526 12.5113 11.975C12.7452 11.5815 13.0201 11.2401 13.3372 10.9535C13.2643 10.8883 13.1927 10.8206 13.1224 10.7541C12.7082 10.3645 12.2799 9.96057 11.4859 9.70908L10.3775 9.35727L11.0564 8.74877C7.2235 9.92538 6 13.3614 6 17.2183C6 22.6206 10.9247 27 17 27C23.074 27 28 22.6206 28 17.2183C28 13.2363 26.5898 9.45369 22.4783 8.44386Z" fill="#0D5355"/>
    <path d="M14.0959 11.1645C13.6932 11.4499 13.348 11.8226 13.0706 12.2903C12.7983 12.7672 12.5784 13.3197 12.5285 14.1172C14.156 13.2454 15.1699 13.9165 16.1198 13.252C16.0993 13.4604 16.0942 13.6663 16.1121 13.8735C16.1466 14.3725 16.2872 14.8638 16.5417 15.3459C16.8076 15.8267 17.1617 16.2997 17.8125 16.7492C18.3827 16.2007 18.6588 15.6756 18.8467 15.157C19.0232 14.641 19.0858 14.1341 19.0411 13.635C19.0142 13.3106 18.9414 12.9901 18.8276 12.6734C19.8567 12.8246 20.588 11.9398 22.3216 12.1574C21.9969 11.429 21.5993 10.9912 21.18 10.6433C20.7581 10.3059 20.3068 10.083 19.8299 9.96186C19.7315 9.9358 19.6343 9.91756 19.5333 9.90192C20.1342 9.38853 20.5203 8.54549 21.8128 7.99562C21.1748 7.52784 20.6162 7.34802 20.083 7.25942C19.5512 7.17993 19.0513 7.21381 18.5783 7.35063C18.1052 7.48353 17.6578 7.71677 17.241 8.06207C17.0812 8.20019 16.9265 8.35916 16.7769 8.53376C16.2029 6.64309 15.5253 5.13421 15.4639 5L15.0203 5.20978C15.0343 5.24236 15.7426 6.81379 16.3282 8.75918C16.2975 8.73051 16.2642 8.70315 16.231 8.6797C15.7848 8.3761 15.3182 8.18716 14.8336 8.10116C14.3516 8.01256 13.8479 8.02689 13.3276 8.15719C12.8047 8.29922 12.2664 8.53115 11.6758 9.05887C13.2419 9.55532 13.6127 10.5665 14.4756 10.9313C14.3452 11.003 14.2174 11.0785 14.0959 11.1645ZM17.3509 10.2016C17.3573 10.2016 17.3637 10.2055 17.3688 10.2068C17.3458 10.2172 17.3215 10.2303 17.2985 10.242C17.3151 10.229 17.333 10.2159 17.3509 10.2016Z" fill="#0D5355"/>
    <path d="M61 18C61 21.866 58.0899 25 54.5 25C50.9101 25 48 21.866 48 18C48 14.134 50.9101 11 54.5 11C58.0899 11 61 14.134 61 18Z" fill="#A6ECEE"/>
    <path d="M54.53 23.1293C53.8775 23.1293 53.2959 23.0092 52.785 22.7692C52.2772 22.5291 51.874 22.1983 51.5755 21.7766C51.2769 21.355 51.1215 20.8718 51.1092 20.3271H53.0481C53.0697 20.6933 53.2235 20.9903 53.5098 21.218C53.796 21.4458 54.1361 21.5597 54.53 21.5597C54.8439 21.5597 55.1209 21.4904 55.361 21.3519C55.6041 21.2103 55.7934 21.0149 55.9288 20.7656C56.0673 20.5133 56.1365 20.224 56.1365 19.8977C56.1365 19.5653 56.0658 19.273 55.9242 19.0206C55.7857 18.7682 55.5933 18.5713 55.3471 18.4297C55.1009 18.2881 54.8193 18.2158 54.5023 18.2127C54.2253 18.2127 53.956 18.2696 53.6944 18.3835C53.4359 18.4974 53.2343 18.6528 53.0897 18.8498L51.3123 18.5312L51.7601 13.5455H57.54V15.1797H53.4082L53.1635 17.5479H53.2189C53.3851 17.314 53.6359 17.1201 53.9714 16.9663C54.3069 16.8124 54.6824 16.7354 55.0978 16.7354C55.6672 16.7354 56.175 16.8693 56.6213 17.1371C57.0675 17.4048 57.4199 17.7726 57.6784 18.2404C57.937 18.7051 58.0647 19.2406 58.0616 19.8469C58.0647 20.484 57.917 21.0503 57.6184 21.5458C57.323 22.0382 56.909 22.426 56.3766 22.7092C55.8472 22.9892 55.2317 23.1293 54.53 23.1293Z" fill="#0D5355"/>
    <path d="M42.7071 18.7071C43.0976 18.3166 43.0976 17.6834 42.7071 17.2929L36.3431 10.9289C35.9526 10.5384 35.3195 10.5384 34.9289 10.9289C34.5384 11.3195 34.5384 11.9526 34.9289 12.3431L40.5858 18L34.9289 23.6569C34.5384 24.0474 34.5384 24.6805 34.9289 25.0711C35.3195 25.4616 35.9526 25.4616 36.3431 25.0711L42.7071 18.7071ZM31 19H42V17H31V19Z" fill="#A6ECEE"/>
    <path d="M2 27L5.26665 28.9423C25.8555 41.1843 51.6639 40.4275 71.5 27V27" stroke="#A6ECEE"/>
    <circle cx="35.5" cy="37" r="6" fill="#A6ECEE"/>
    <path d="M27.4855 39.3381V37.7638L31.4326 31.5455H32.7899V33.7244H31.9866L29.4983 37.6623V37.7362H35.1073V39.3381H27.4855ZM32.0235 41V38.858L32.0605 38.1609V31.5455H33.9347V41H32.0235ZM38.1011 33.9091L39.403 36.3881L40.7371 33.9091H42.7545L40.7002 37.4545L42.8099 41H40.8018L39.403 38.5487L38.0273 41H35.996L38.1011 37.4545L36.0699 33.9091H38.1011Z" fill="#0D5355"/>
    <circle cx="36.5" cy="67.5" r="8.5" fill="#A6ECEE"/>
    <path d="M33.51 62.5455V72H31.5111V64.4428H31.4557L29.2905 65.8001V64.0273L31.6311 62.5455H33.51ZM39.2102 72.1293C38.5577 72.1293 37.976 72.0092 37.4652 71.7692C36.9573 71.5291 36.5542 71.1983 36.2556 70.7766C35.9571 70.355 35.8017 69.8718 35.7894 69.3271H37.7283C37.7498 69.6933 37.9037 69.9903 38.1899 70.218C38.4762 70.4458 38.8162 70.5597 39.2102 70.5597C39.5241 70.5597 39.8011 70.4904 40.0411 70.3519C40.2843 70.2103 40.4736 70.0149 40.609 69.7656C40.7475 69.5133 40.8167 69.224 40.8167 68.8977C40.8167 68.5653 40.7459 68.273 40.6044 68.0206C40.4659 67.7682 40.2735 67.5713 40.0273 67.4297C39.7811 67.2881 39.4995 67.2158 39.1825 67.2127C38.9055 67.2127 38.6362 67.2696 38.3746 67.3835C38.1161 67.4974 37.9145 67.6528 37.7698 67.8498L35.9925 67.5312L36.4403 62.5455H42.2201V64.1797H38.0884L37.8437 66.5479H37.8991C38.0653 66.314 38.3161 66.1201 38.6516 65.9663C38.9871 65.8124 39.3625 65.7354 39.778 65.7354C40.3474 65.7354 40.8552 65.8693 41.3014 66.1371C41.7477 66.4048 42.1001 66.7726 42.3586 67.2404C42.6171 67.7051 42.7449 68.2406 42.7418 68.8469C42.7449 69.484 42.5971 70.0503 42.2986 70.5458C42.0032 71.0382 41.5892 71.426 41.0568 71.7092C40.5274 71.9892 39.9119 72.1293 39.2102 72.1293Z" fill="#0D5355"/>
    <path d="M35.2929 56.7071C35.6834 57.0976 36.3166 57.0976 36.7071 56.7071L43.0711 50.3431C43.4616 49.9526 43.4616 49.3195 43.0711 48.9289C42.6805 48.5384 42.0474 48.5384 41.6569 48.9289L36 54.5858L30.3431 48.9289C29.9526 48.5384 29.3195 48.5384 28.9289 48.9289C28.5384 49.3195 28.5384 49.9526 28.9289 50.3431L35.2929 56.7071ZM35 45V56H37V45H35Z" fill="#A6ECEE"/>
</svg>
