<svg width="28" height="28" viewBox="0 0 28 28" fill="none" xmlns="http://www.w3.org/2000/svg">
<rect x="0.5" y="0.5" width="27" height="27" rx="13.5" stroke="#0D5355"/>
<path d="M5.75 8V12.5M5.75 12.5H10.25M5.75 12.5L9.23 9.23C10.0361 8.42353 11.0333 7.8344 12.1286 7.51758C13.2239 7.20075 14.3817 7.16656 15.4938 7.41819C16.6059 7.66982 17.6361 8.19907 18.4884 8.95656C19.3407 9.71405 19.9871 10.6751 20.3675 11.75M22.25 20V15.5M22.25 15.5H17.75M22.25 15.5L18.77 18.77C17.9639 19.5765 16.9667 20.1656 15.8714 20.4824C14.7761 20.7992 13.6183 20.8334 12.5062 20.5818C11.3941 20.3302 10.3639 19.8009 9.5116 19.0434C8.65935 18.2859 8.01288 17.3249 7.6325 16.25" stroke="#0D5355" stroke-linecap="round" stroke-linejoin="round"/>
</svg>
