<svg width="255" height="50" viewBox="0 0 255 50" fill="none" xmlns="http://www.w3.org/2000/svg">
<path d="M18.4935 32.5573C18.4935 45.7406 27.5115 43.7318 23.8704 48.8004C14.8993 54.6123 0 38.1133 0 24.93C0 11.7468 10.9458 -4.29885 23.8704 1.05964C35.5493 6.71224 18.4935 19.3741 18.4935 32.5573Z" fill="url(#paint0_linear_27_111)"/>
<path d="M40.7844 42.32C38.587 42.32 36.6884 41.872 35.0884 40.976C33.4884 40.08 32.251 38.8533 31.3764 37.296C30.5017 35.7387 30.0644 33.968 30.0644 31.984C30.0644 30.448 30.363 28.9973 30.9604 27.632C31.5577 26.2667 32.3684 25.0507 33.3924 23.984C34.4377 22.9173 35.6324 22.0853 36.9764 21.488C38.3204 20.8693 39.7497 20.56 41.2644 20.56C42.3524 20.56 43.2697 20.6347 44.0164 20.784C44.763 20.912 45.4244 21.0933 46.0004 21.328C46.5977 21.5413 47.195 21.7973 47.7924 22.096L47.9844 27.792H47.4084L45.2004 23.632C44.475 23.12 43.8137 22.7467 43.2164 22.512C42.6404 22.2773 41.9897 22.16 41.2644 22.16C39.7924 22.16 38.4697 22.544 37.2964 23.312C36.123 24.08 35.195 25.1467 34.5124 26.512C33.851 27.856 33.5204 29.4133 33.5204 31.184C33.5204 33.168 33.8404 34.8747 34.4804 36.304C35.1417 37.712 36.027 38.7893 37.1364 39.536C38.2457 40.2827 39.4724 40.656 40.8164 40.656C41.9257 40.656 42.8537 40.5067 43.6004 40.208C44.3684 39.9093 45.051 39.5573 45.6484 39.152L47.7924 35.568H48.3364L47.9524 40.72C47.0137 41.1893 46.011 41.5733 44.9444 41.872C43.8777 42.1707 42.491 42.32 40.7844 42.32ZM52.3901 42V41.488L54.4061 40.464V21.648L52.4861 20.016V19.76L57.1901 18H57.4461V40.464L59.4301 41.488V42H52.3901ZM68.9911 42.32C66.9005 42.32 65.2471 41.6907 64.0311 40.432C62.8151 39.1733 62.2071 37.4987 62.2071 35.408C62.2071 33.8293 62.5271 32.4213 63.1671 31.184C63.8285 29.9467 64.6925 28.9867 65.7591 28.304C66.8471 27.6 68.0205 27.248 69.2791 27.248C70.9858 27.248 72.3191 27.8347 73.2791 29.008C74.2391 30.16 74.7298 31.824 74.7511 34L74.5911 34.16H65.1511C65.1725 35.1413 65.3538 36.048 65.6951 36.88C66.0578 37.712 66.6231 38.384 67.3911 38.896C68.1805 39.408 69.2365 39.664 70.5591 39.664C71.7751 39.664 73.1511 39.2587 74.6871 38.448H74.7831V38.832C74.2711 39.8133 73.5138 40.6453 72.5111 41.328C71.5085 41.9893 70.3351 42.32 68.9911 42.32ZM68.7031 28.656C67.7645 28.656 66.9858 29.008 66.3671 29.712C65.7698 30.416 65.3858 31.408 65.2151 32.688H72.0311C71.8178 31.2373 71.4338 30.2027 70.8791 29.584C70.3245 28.9653 69.5991 28.656 68.7031 28.656ZM81.3819 42.32C80.3579 42.32 79.5045 42.0213 78.8219 41.424C78.1605 40.8053 77.8299 39.9627 77.8299 38.896C77.8299 37.8507 78.2032 36.9547 78.9499 36.208C79.7179 35.44 81.0405 34.832 82.9179 34.384L85.9579 33.68V31.44C85.9579 30.672 85.6699 30.032 85.0939 29.52C84.5392 29.008 83.8885 28.752 83.1419 28.752C82.3525 28.752 81.7979 28.9547 81.4779 29.36C81.1792 29.7653 81.0299 30.32 81.0299 31.024V32.048L80.8699 32.208H79.1099C78.7899 32.208 78.5659 32.1547 78.4379 32.048C78.3312 31.92 78.2779 31.664 78.2779 31.28C78.2779 30.8107 78.4165 30.3413 78.6939 29.872C78.9925 29.3813 79.4405 28.9547 80.0379 28.592C80.6779 28.1867 81.3285 27.8667 81.9899 27.632C82.6512 27.376 83.3552 27.248 84.1019 27.248C84.9125 27.248 85.6912 27.3653 86.4379 27.6C87.2059 27.8133 87.8245 28.1867 88.2939 28.72C88.7632 29.2533 88.9979 29.968 88.9979 30.864V39.792C89.1472 39.9413 89.3499 40.0693 89.6059 40.176C89.8832 40.2827 90.2565 40.336 90.7259 40.336H91.8459L91.9739 40.4V40.592C91.7179 41.04 91.3232 41.4453 90.7899 41.808C90.2779 42.1493 89.6485 42.32 88.9019 42.32C88.1765 42.32 87.5899 42.1493 87.1419 41.808C86.6939 41.4453 86.3739 40.9547 86.1819 40.336H85.9579C85.4032 40.8907 84.7205 41.36 83.9099 41.744C83.1205 42.128 82.2779 42.32 81.3819 42.32ZM80.7419 38.192C80.7419 39.5147 81.5205 40.176 83.0779 40.176C83.5472 40.176 83.9952 40.1333 84.4219 40.048C84.8699 39.9413 85.3819 39.7707 85.9579 39.536V34.8C84.4219 35.0987 83.2805 35.4187 82.5339 35.76C81.7872 36.1013 81.2965 36.4747 81.0619 36.88C80.8485 37.264 80.7419 37.7013 80.7419 38.192ZM93.6736 42V41.488L95.7216 40.464V30.896L93.7696 29.296V29.04L98.1856 27.248H98.4096L98.6976 29.616H98.8576C99.6683 28.8267 100.447 28.24 101.194 27.856C101.94 27.4507 102.783 27.248 103.722 27.248C104.959 27.248 105.983 27.568 106.794 28.208C107.626 28.8267 108.042 29.7653 108.042 31.024V40.464L110.058 41.488V42H102.89V41.488L105.002 40.464V32.496C105.002 31.5787 104.724 30.896 104.17 30.448C103.615 29.9787 102.9 29.744 102.026 29.744C101.492 29.744 100.906 29.8293 100.266 30C99.6256 30.1707 99.1136 30.4373 98.7296 30.8V40.464L100.842 41.488V42H93.6736ZM121.797 49.712C121.306 49.712 120.997 49.6373 120.869 49.488C120.762 49.36 120.709 49.1253 120.709 48.784V47.056L120.837 46.896H122.309C122.842 46.896 123.258 46.8533 123.557 46.768C123.855 46.6827 124.133 46.448 124.389 46.064C124.645 45.7013 124.965 45.0827 125.349 44.208L126.405 41.808L120.421 29.04L118.309 28.08V27.568H126.245V28.08L123.749 29.04V29.2L127.845 38.032H127.973L131.333 29.36V29.2L129.061 28.08V27.568H135.301V28.08L132.933 29.136L126.597 44.528C126.405 45.0187 126.234 45.424 126.085 45.744C125.957 46.0853 125.807 46.4053 125.637 46.704C125.466 47.024 125.221 47.408 124.901 47.856C124.474 48.4747 123.983 48.9333 123.429 49.232C122.874 49.552 122.33 49.712 121.797 49.712ZM143.156 42.32C141.727 42.32 140.468 41.9893 139.38 41.328C138.314 40.6453 137.471 39.7387 136.852 38.608C136.255 37.456 135.956 36.176 135.956 34.768C135.956 33.36 136.255 32.0907 136.852 30.96C137.471 29.808 138.314 28.9013 139.38 28.24C140.468 27.5787 141.727 27.248 143.156 27.248C144.586 27.248 145.834 27.5787 146.9 28.24C147.967 28.9013 148.799 29.808 149.396 30.96C150.015 32.0907 150.324 33.36 150.324 34.768C150.324 36.176 150.015 37.456 149.396 38.608C148.799 39.7387 147.967 40.6453 146.9 41.328C145.834 41.9893 144.586 42.32 143.156 42.32ZM143.572 40.912C144.383 40.912 145.044 40.6453 145.556 40.112C146.068 39.5787 146.442 38.896 146.676 38.064C146.911 37.232 147.028 36.3467 147.028 35.408C147.028 34.2773 146.879 33.2 146.58 32.176C146.303 31.1307 145.855 30.2773 145.236 29.616C144.618 28.9547 143.807 28.624 142.804 28.624C141.994 28.624 141.322 28.8907 140.788 29.424C140.255 29.936 139.86 30.608 139.604 31.44C139.37 32.272 139.252 33.1573 139.252 34.096C139.252 35.2267 139.402 36.3147 139.7 37.36C139.999 38.4053 140.468 39.2587 141.108 39.92C141.748 40.5813 142.57 40.912 143.572 40.912ZM158.964 42.32C157.705 42.32 156.671 42 155.86 41.36C155.071 40.72 154.676 39.7813 154.676 38.544V29.072L152.628 28.08V27.568H157.684V37.072C157.684 37.968 157.951 38.6507 158.484 39.12C159.039 39.5893 159.753 39.824 160.628 39.824C161.161 39.824 161.748 39.7387 162.388 39.568C163.028 39.376 163.54 39.0987 163.924 38.736V29.072L161.748 28.08V27.568H166.964V40.56L169.172 41.488V42H163.924V39.984H163.764C162.975 40.7733 162.207 41.36 161.46 41.744C160.713 42.128 159.881 42.32 158.964 42.32ZM171.52 42V41.488L173.568 40.464V30.928L171.616 29.296V29.04L176.032 27.248H176.288L176.576 30H176.704C177.194 29.1893 177.642 28.592 178.048 28.208C178.453 27.8027 178.837 27.5467 179.2 27.44C179.562 27.312 179.936 27.248 180.32 27.248C180.512 27.248 180.714 27.28 180.928 27.344C181.162 27.3867 181.354 27.44 181.504 27.504C181.76 27.6107 181.984 27.7387 182.176 27.888C182.368 28.0373 182.464 28.208 182.464 28.4C182.464 28.592 182.421 28.784 182.336 28.976L181.664 30.672H181.44L180.32 30.224C180.064 30.1387 179.818 30.0853 179.584 30.064C179.349 30.0213 179.114 30 178.88 30C177.962 30 177.205 30.4373 176.608 31.312V40.464L178.944 41.488V42H171.52ZM192.553 42V41.488L194.601 40.464V29.04H192.105V27.568H194.601V26.352C194.601 25.52 194.846 24.624 195.337 23.664C195.849 22.704 196.542 21.7973 197.417 20.944C198.313 20.0693 199.337 19.3653 200.489 18.832C201.641 18.2773 202.868 18 204.169 18C204.66 18 205.086 18.0427 205.449 18.128C205.812 18.192 206.11 18.2667 206.345 18.352C206.537 18.416 206.708 18.48 206.857 18.544L207.945 18H208.457V40.464L210.473 41.488V42H203.401V41.488L205.449 40.464V20.976C204.51 20.464 203.39 20.208 202.089 20.208C200.532 20.208 199.39 20.6987 198.665 21.68C197.961 22.6613 197.609 23.9093 197.609 25.424V27.568H201.737V29.04H197.609V40.528L199.945 41.488V42H192.553ZM220.438 42.32C219.008 42.32 217.75 41.9893 216.662 41.328C215.595 40.6453 214.752 39.7387 214.134 38.608C213.536 37.456 213.238 36.176 213.238 34.768C213.238 33.36 213.536 32.0907 214.134 30.96C214.752 29.808 215.595 28.9013 216.662 28.24C217.75 27.5787 219.008 27.248 220.438 27.248C221.867 27.248 223.115 27.5787 224.182 28.24C225.248 28.9013 226.08 29.808 226.678 30.96C227.296 32.0907 227.606 33.36 227.606 34.768C227.606 36.176 227.296 37.456 226.678 38.608C226.08 39.7387 225.248 40.6453 224.182 41.328C223.115 41.9893 221.867 42.32 220.438 42.32ZM220.854 40.912C221.664 40.912 222.326 40.6453 222.838 40.112C223.35 39.5787 223.723 38.896 223.958 38.064C224.192 37.232 224.31 36.3467 224.31 35.408C224.31 34.2773 224.16 33.2 223.862 32.176C223.584 31.1307 223.136 30.2773 222.518 29.616C221.899 28.9547 221.088 28.624 220.086 28.624C219.275 28.624 218.603 28.8907 218.07 29.424C217.536 29.936 217.142 30.608 216.886 31.44C216.651 32.272 216.534 33.1573 216.534 34.096C216.534 35.2267 216.683 36.3147 216.982 37.36C217.28 38.4053 217.75 39.2587 218.39 39.92C219.03 40.5813 219.851 40.912 220.854 40.912ZM235.477 42L230.389 29.04L228.277 28.08V27.568H236.245V28.08L233.717 29.008V29.2L236.917 37.648H237.045L241.397 27.568H242.197L246.549 37.552H246.677L249.813 29.36V29.2L247.573 28.08V27.568H253.845V28.08L251.509 29.168L246.101 42H245.301L240.853 31.984L236.277 42H235.477Z" fill="#A6ECEE"/>
<defs>
<linearGradient id="paint0_linear_27_111" x1="-7.40423" y1="-22.0371" x2="33.9269" y2="47.1427" gradientUnits="userSpaceOnUse">
<stop offset="0.33" stopColor="#64AC52"/>
<stop offset="0.66" stopColor="#1EBAC0"/>
<stop offset="0.99" stopColor="#DB5BA9"/>
</linearGradient>
</defs>
</svg>
